<svg xmlns="http://www.w3.org/2000/svg" xmlns:xlink="http://www.w3.org/1999/xlink" width="248.145" height="380.306" viewBox="0 0 248.145 380.306"><defs><clipPath id="a"><rect width="248.145" height="380.306" fill="none"/></clipPath></defs><g clip-path="url(#a)"><g transform="translate(-0.133 -2124.459)"><g transform="translate(0.133 2124.459)" opacity="0.14"><circle cx="5.148" cy="5.148" r="5.148" transform="translate(156.145) rotate(90)" fill="#ccc"/><circle cx="5.148" cy="5.148" r="5.148" transform="translate(156.145 29.17) rotate(90)" fill="#ccc"/><circle cx="5.148" cy="5.148" r="5.148" transform="translate(156.145 58.34) rotate(90)" fill="#ccc"/><circle cx="5.148" cy="5.148" r="5.148" transform="translate(156.145 83.003) rotate(90)" fill="#ccc"/><circle cx="5.148" cy="5.148" r="5.148" transform="translate(156.145 110.67) rotate(90)" fill="#ccc"/><circle cx="5.148" cy="5.148" r="5.148" transform="translate(156.145 138.338) rotate(90)" fill="#ccc"/><circle cx="5.148" cy="5.148" r="5.148" transform="translate(156.145 166.005) rotate(90)" fill="#ccc"/><circle cx="5.148" cy="5.148" r="5.148" transform="translate(156.145 193.673) rotate(90)" fill="#ccc"/><circle cx="5.148" cy="5.148" r="5.148" transform="translate(156.145 221.341) rotate(90)" fill="#ccc"/><circle cx="5.148" cy="5.148" r="5.148" transform="translate(156.145 249.008) rotate(90)" fill="#ccc"/><circle cx="5.148" cy="5.148" r="5.148" transform="translate(156.145 273.671) rotate(90)" fill="#ccc"/><circle cx="5.148" cy="5.148" r="5.148" transform="translate(156.145 302.841) rotate(90)" fill="#ccc"/><circle cx="5.148" cy="5.148" r="5.148" transform="translate(156.145 332.011) rotate(90)" fill="#ccc"/><circle cx="5.148" cy="5.148" r="5.148" transform="translate(39.465) rotate(90)" fill="#ccc"/><circle cx="5.148" cy="5.148" r="5.148" transform="translate(39.465 29.17) rotate(90)" fill="#ccc"/><circle cx="5.148" cy="5.148" r="5.148" transform="translate(39.465 58.34) rotate(90)" fill="#ccc"/><circle cx="5.148" cy="5.148" r="5.148" transform="translate(39.465 83.003) rotate(90)" fill="#ccc"/><circle cx="5.148" cy="5.148" r="5.148" transform="translate(39.465 110.67) rotate(90)" fill="#ccc"/><circle cx="5.148" cy="5.148" r="5.148" transform="translate(39.465 138.338) rotate(90)" fill="#ccc"/><circle cx="5.148" cy="5.148" r="5.148" transform="translate(39.465 166.005) rotate(90)" fill="#ccc"/><circle cx="5.148" cy="5.148" r="5.148" transform="translate(126.975) rotate(90)" fill="#ccc"/><circle cx="5.148" cy="5.148" r="5.148" transform="translate(126.975 29.17) rotate(90)" fill="#ccc"/><circle cx="5.148" cy="5.148" r="5.148" transform="translate(126.975 58.34) rotate(90)" fill="#ccc"/><circle cx="5.148" cy="5.148" r="5.148" transform="translate(126.975 83.003) rotate(90)" fill="#ccc"/><circle cx="5.148" cy="5.148" r="5.148" transform="translate(126.975 110.67) rotate(90)" fill="#ccc"/><circle cx="5.148" cy="5.148" r="5.148" transform="translate(126.975 138.338) rotate(90)" fill="#ccc"/><circle cx="5.148" cy="5.148" r="5.148" transform="translate(126.975 166.005) rotate(90)" fill="#ccc"/><circle cx="5.148" cy="5.148" r="5.148" transform="translate(126.975 193.673) rotate(90)" fill="#ccc"/><circle cx="5.148" cy="5.148" r="5.148" transform="translate(126.975 221.341) rotate(90)" fill="#ccc"/><circle cx="5.148" cy="5.148" r="5.148" transform="translate(126.975 249.008) rotate(90)" fill="#ccc"/><circle cx="5.148" cy="5.148" r="5.148" transform="translate(126.975 273.671) rotate(90)" fill="#ccc"/><circle cx="5.148" cy="5.148" r="5.148" transform="translate(126.975 302.841) rotate(90)" fill="#ccc"/><circle cx="5.148" cy="5.148" r="5.148" transform="translate(126.975 332.011) rotate(90)" fill="#ccc"/><circle cx="5.148" cy="5.148" r="5.148" transform="translate(10.295) rotate(90)" fill="#ccc"/><circle cx="5.148" cy="5.148" r="5.148" transform="translate(10.295 29.17) rotate(90)" fill="#ccc"/><circle cx="5.148" cy="5.148" r="5.148" transform="translate(10.295 58.34) rotate(90)" fill="#ccc"/><circle cx="5.148" cy="5.148" r="5.148" transform="translate(10.295 83.003) rotate(90)" fill="#ccc"/><circle cx="5.148" cy="5.148" r="5.148" transform="translate(10.295 110.67) rotate(90)" fill="#ccc"/><circle cx="5.148" cy="5.148" r="5.148" transform="translate(10.295 138.338) rotate(90)" fill="#ccc"/><circle cx="5.148" cy="5.148" r="5.148" transform="translate(10.295 166.005) rotate(90)" fill="#ccc"/><circle cx="5.148" cy="5.148" r="5.148" transform="translate(97.805) rotate(90)" fill="#ccc"/><circle cx="5.148" cy="5.148" r="5.148" transform="translate(97.805 29.17) rotate(90)" fill="#ccc"/><circle cx="5.148" cy="5.148" r="5.148" transform="translate(97.805 58.34) rotate(90)" fill="#ccc"/><circle cx="5.148" cy="5.148" r="5.148" transform="translate(97.805 83.003) rotate(90)" fill="#ccc"/><circle cx="5.148" cy="5.148" r="5.148" transform="translate(97.805 110.67) rotate(90)" fill="#ccc"/><circle cx="5.148" cy="5.148" r="5.148" transform="translate(97.805 138.338) rotate(90)" fill="#ccc"/><circle cx="5.148" cy="5.148" r="5.148" transform="translate(97.805 166.005) rotate(90)" fill="#ccc"/><circle cx="5.148" cy="5.148" r="5.148" transform="translate(97.805 193.673) rotate(90)" fill="#ccc"/><circle cx="5.148" cy="5.148" r="5.148" transform="translate(97.805 221.341) rotate(90)" fill="#ccc"/><circle cx="5.148" cy="5.148" r="5.148" transform="translate(97.805 249.008) rotate(90)" fill="#ccc"/><circle cx="5.148" cy="5.148" r="5.148" transform="translate(97.805 273.671) rotate(90)" fill="#ccc"/><circle cx="5.148" cy="5.148" r="5.148" transform="translate(97.805 302.841) rotate(90)" fill="#ccc"/><circle cx="5.148" cy="5.148" r="5.148" transform="translate(97.805 332.011) rotate(90)" fill="#ccc"/><circle cx="5.148" cy="5.148" r="5.148" transform="translate(39.465 193.673) rotate(90)" fill="#ccc"/><circle cx="5.148" cy="5.148" r="5.148" transform="translate(39.465 221.341) rotate(90)" fill="#ccc"/><circle cx="5.148" cy="5.148" r="5.148" transform="translate(39.465 249.008) rotate(90)" fill="#ccc"/><circle cx="5.148" cy="5.148" r="5.148" transform="translate(39.465 273.671) rotate(90)" fill="#ccc"/><circle cx="5.148" cy="5.148" r="5.148" transform="translate(39.465 302.841) rotate(90)" fill="#ccc"/><circle cx="5.148" cy="5.148" r="5.148" transform="translate(39.465 332.011) rotate(90)" fill="#ccc"/><circle cx="5.148" cy="5.148" r="5.148" transform="translate(68.635) rotate(90)" fill="#ccc"/><circle cx="5.148" cy="5.148" r="5.148" transform="translate(68.635 29.17) rotate(90)" fill="#ccc"/><circle cx="5.148" cy="5.148" r="5.148" transform="translate(68.635 58.34) rotate(90)" fill="#ccc"/><circle cx="5.148" cy="5.148" r="5.148" transform="translate(68.635 83.003) rotate(90)" fill="#ccc"/><circle cx="5.148" cy="5.148" r="5.148" transform="translate(68.635 110.67) rotate(90)" fill="#ccc"/><circle cx="5.148" cy="5.148" r="5.148" transform="translate(68.635 138.338) rotate(90)" fill="#ccc"/><circle cx="5.148" cy="5.148" r="5.148" transform="translate(68.635 166.005) rotate(90)" fill="#ccc"/><circle cx="5.148" cy="5.148" r="5.148" transform="translate(68.635 193.673) rotate(90)" fill="#ccc"/><circle cx="5.148" cy="5.148" r="5.148" transform="translate(68.635 221.341) rotate(90)" fill="#ccc"/><circle cx="5.148" cy="5.148" r="5.148" transform="translate(68.635 249.008) rotate(90)" fill="#ccc"/><circle cx="5.148" cy="5.148" r="5.148" transform="translate(68.635 273.671) rotate(90)" fill="#ccc"/><circle cx="5.148" cy="5.148" r="5.148" transform="translate(68.635 302.841) rotate(90)" fill="#ccc"/><circle cx="5.148" cy="5.148" r="5.148" transform="translate(68.635 332.011) rotate(90)" fill="#ccc"/><circle cx="5.148" cy="5.148" r="5.148" transform="translate(10.295 193.673) rotate(90)" fill="#ccc"/><circle cx="5.148" cy="5.148" r="5.148" transform="translate(10.295 221.341) rotate(90)" fill="#ccc"/><circle cx="5.148" cy="5.148" r="5.148" transform="translate(10.295 249.008) rotate(90)" fill="#ccc"/><circle cx="5.148" cy="5.148" r="5.148" transform="translate(10.295 273.671) rotate(90)" fill="#ccc"/><circle cx="5.148" cy="5.148" r="5.148" transform="translate(10.295 302.841) rotate(90)" fill="#ccc"/><circle cx="5.148" cy="5.148" r="5.148" transform="translate(10.295 332.011) rotate(90)" fill="#ccc"/></g></g><g transform="translate(176.867 -2124.459)"><g transform="translate(0.133 2124.459)" opacity="0.14"><circle cx="5.148" cy="5.148" r="5.148" transform="translate(156.145) rotate(90)" fill="#ccc"/><circle cx="5.148" cy="5.148" r="5.148" transform="translate(156.145 29.17) rotate(90)" fill="#ccc"/><circle cx="5.148" cy="5.148" r="5.148" transform="translate(156.145 58.34) rotate(90)" fill="#ccc"/><circle cx="5.148" cy="5.148" r="5.148" transform="translate(156.145 83.003) rotate(90)" fill="#ccc"/><circle cx="5.148" cy="5.148" r="5.148" transform="translate(156.145 110.67) rotate(90)" fill="#ccc"/><circle cx="5.148" cy="5.148" r="5.148" transform="translate(156.145 138.338) rotate(90)" fill="#ccc"/><circle cx="5.148" cy="5.148" r="5.148" transform="translate(156.145 166.005) rotate(90)" fill="#ccc"/><circle cx="5.148" cy="5.148" r="5.148" transform="translate(156.145 193.673) rotate(90)" fill="#ccc"/><circle cx="5.148" cy="5.148" r="5.148" transform="translate(156.145 221.341) rotate(90)" fill="#ccc"/><circle cx="5.148" cy="5.148" r="5.148" transform="translate(156.145 249.008) rotate(90)" fill="#ccc"/><circle cx="5.148" cy="5.148" r="5.148" transform="translate(156.145 273.671) rotate(90)" fill="#ccc"/><circle cx="5.148" cy="5.148" r="5.148" transform="translate(156.145 302.841) rotate(90)" fill="#ccc"/><circle cx="5.148" cy="5.148" r="5.148" transform="translate(156.145 332.011) rotate(90)" fill="#ccc"/><circle cx="5.148" cy="5.148" r="5.148" transform="translate(39.465) rotate(90)" fill="#ccc"/><circle cx="5.148" cy="5.148" r="5.148" transform="translate(39.465 29.17) rotate(90)" fill="#ccc"/><circle cx="5.148" cy="5.148" r="5.148" transform="translate(39.465 58.34) rotate(90)" fill="#ccc"/><circle cx="5.148" cy="5.148" r="5.148" transform="translate(39.465 83.003) rotate(90)" fill="#ccc"/><circle cx="5.148" cy="5.148" r="5.148" transform="translate(39.465 110.67) rotate(90)" fill="#ccc"/><circle cx="5.148" cy="5.148" r="5.148" transform="translate(39.465 138.338) rotate(90)" fill="#ccc"/><circle cx="5.148" cy="5.148" r="5.148" transform="translate(39.465 166.005) rotate(90)" fill="#ccc"/><circle cx="5.148" cy="5.148" r="5.148" transform="translate(126.975) rotate(90)" fill="#ccc"/><circle cx="5.148" cy="5.148" r="5.148" transform="translate(126.975 29.17) rotate(90)" fill="#ccc"/><circle cx="5.148" cy="5.148" r="5.148" transform="translate(126.975 58.34) rotate(90)" fill="#ccc"/><circle cx="5.148" cy="5.148" r="5.148" transform="translate(126.975 83.003) rotate(90)" fill="#ccc"/><circle cx="5.148" cy="5.148" r="5.148" transform="translate(126.975 110.67) rotate(90)" fill="#ccc"/><circle cx="5.148" cy="5.148" r="5.148" transform="translate(126.975 138.338) rotate(90)" fill="#ccc"/><circle cx="5.148" cy="5.148" r="5.148" transform="translate(126.975 166.005) rotate(90)" fill="#ccc"/><circle cx="5.148" cy="5.148" r="5.148" transform="translate(126.975 193.673) rotate(90)" fill="#ccc"/><circle cx="5.148" cy="5.148" r="5.148" transform="translate(126.975 221.341) rotate(90)" fill="#ccc"/><circle cx="5.148" cy="5.148" r="5.148" transform="translate(126.975 249.008) rotate(90)" fill="#ccc"/><circle cx="5.148" cy="5.148" r="5.148" transform="translate(126.975 273.671) rotate(90)" fill="#ccc"/><circle cx="5.148" cy="5.148" r="5.148" transform="translate(126.975 302.841) rotate(90)" fill="#ccc"/><circle cx="5.148" cy="5.148" r="5.148" transform="translate(126.975 332.011) rotate(90)" fill="#ccc"/><circle cx="5.148" cy="5.148" r="5.148" transform="translate(10.295) rotate(90)" fill="#ccc"/><circle cx="5.148" cy="5.148" r="5.148" transform="translate(10.295 29.17) rotate(90)" fill="#ccc"/><circle cx="5.148" cy="5.148" r="5.148" transform="translate(10.295 58.34) rotate(90)" fill="#ccc"/><circle cx="5.148" cy="5.148" r="5.148" transform="translate(10.295 83.003) rotate(90)" fill="#ccc"/><circle cx="5.148" cy="5.148" r="5.148" transform="translate(10.295 110.67) rotate(90)" fill="#ccc"/><circle cx="5.148" cy="5.148" r="5.148" transform="translate(10.295 138.338) rotate(90)" fill="#ccc"/><circle cx="5.148" cy="5.148" r="5.148" transform="translate(10.295 166.005) rotate(90)" fill="#ccc"/><circle cx="5.148" cy="5.148" r="5.148" transform="translate(97.805) rotate(90)" fill="#ccc"/><circle cx="5.148" cy="5.148" r="5.148" transform="translate(97.805 29.17) rotate(90)" fill="#ccc"/><circle cx="5.148" cy="5.148" r="5.148" transform="translate(97.805 58.34) rotate(90)" fill="#ccc"/><circle cx="5.148" cy="5.148" r="5.148" transform="translate(97.805 83.003) rotate(90)" fill="#ccc"/><circle cx="5.148" cy="5.148" r="5.148" transform="translate(97.805 110.67) rotate(90)" fill="#ccc"/><circle cx="5.148" cy="5.148" r="5.148" transform="translate(97.805 138.338) rotate(90)" fill="#ccc"/><circle cx="5.148" cy="5.148" r="5.148" transform="translate(97.805 166.005) rotate(90)" fill="#ccc"/><circle cx="5.148" cy="5.148" r="5.148" transform="translate(97.805 193.673) rotate(90)" fill="#ccc"/><circle cx="5.148" cy="5.148" r="5.148" transform="translate(97.805 221.341) rotate(90)" fill="#ccc"/><circle cx="5.148" cy="5.148" r="5.148" transform="translate(97.805 249.008) rotate(90)" fill="#ccc"/><circle cx="5.148" cy="5.148" r="5.148" transform="translate(97.805 273.671) rotate(90)" fill="#ccc"/><circle cx="5.148" cy="5.148" r="5.148" transform="translate(97.805 302.841) rotate(90)" fill="#ccc"/><circle cx="5.148" cy="5.148" r="5.148" transform="translate(97.805 332.011) rotate(90)" fill="#ccc"/><circle cx="5.148" cy="5.148" r="5.148" transform="translate(39.465 193.673) rotate(90)" fill="#ccc"/><circle cx="5.148" cy="5.148" r="5.148" transform="translate(39.465 221.341) rotate(90)" fill="#ccc"/><circle cx="5.148" cy="5.148" r="5.148" transform="translate(39.465 249.008) rotate(90)" fill="#ccc"/><circle cx="5.148" cy="5.148" r="5.148" transform="translate(39.465 273.671) rotate(90)" fill="#ccc"/><circle cx="5.148" cy="5.148" r="5.148" transform="translate(39.465 302.841) rotate(90)" fill="#ccc"/><circle cx="5.148" cy="5.148" r="5.148" transform="translate(39.465 332.011) rotate(90)" fill="#ccc"/><circle cx="5.148" cy="5.148" r="5.148" transform="translate(68.635) rotate(90)" fill="#ccc"/><circle cx="5.148" cy="5.148" r="5.148" transform="translate(68.635 29.17) rotate(90)" fill="#ccc"/><circle cx="5.148" cy="5.148" r="5.148" transform="translate(68.635 58.34) rotate(90)" fill="#ccc"/><circle cx="5.148" cy="5.148" r="5.148" transform="translate(68.635 83.003) rotate(90)" fill="#ccc"/><circle cx="5.148" cy="5.148" r="5.148" transform="translate(68.635 110.67) rotate(90)" fill="#ccc"/><circle cx="5.148" cy="5.148" r="5.148" transform="translate(68.635 138.338) rotate(90)" fill="#ccc"/><circle cx="5.148" cy="5.148" r="5.148" transform="translate(68.635 166.005) rotate(90)" fill="#ccc"/><circle cx="5.148" cy="5.148" r="5.148" transform="translate(68.635 193.673) rotate(90)" fill="#ccc"/><circle cx="5.148" cy="5.148" r="5.148" transform="translate(68.635 221.341) rotate(90)" fill="#ccc"/><circle cx="5.148" cy="5.148" r="5.148" transform="translate(68.635 249.008) rotate(90)" fill="#ccc"/><circle cx="5.148" cy="5.148" r="5.148" transform="translate(68.635 273.671) rotate(90)" fill="#ccc"/><circle cx="5.148" cy="5.148" r="5.148" transform="translate(68.635 302.841) rotate(90)" fill="#ccc"/><circle cx="5.148" cy="5.148" r="5.148" transform="translate(68.635 332.011) rotate(90)" fill="#ccc"/><circle cx="5.148" cy="5.148" r="5.148" transform="translate(10.295 193.673) rotate(90)" fill="#ccc"/><circle cx="5.148" cy="5.148" r="5.148" transform="translate(10.295 221.341) rotate(90)" fill="#ccc"/><circle cx="5.148" cy="5.148" r="5.148" transform="translate(10.295 249.008) rotate(90)" fill="#ccc"/><circle cx="5.148" cy="5.148" r="5.148" transform="translate(10.295 273.671) rotate(90)" fill="#ccc"/><circle cx="5.148" cy="5.148" r="5.148" transform="translate(10.295 302.841) rotate(90)" fill="#ccc"/><circle cx="5.148" cy="5.148" r="5.148" transform="translate(10.295 332.011) rotate(90)" fill="#ccc"/></g></g><g transform="translate(-0.133 -1761.459)"><g transform="translate(0.133 2124.459)" opacity="0.14"><circle cx="5.148" cy="5.148" r="5.148" transform="translate(156.145) rotate(90)" fill="#ccc"/><circle cx="5.148" cy="5.148" r="5.148" transform="translate(156.145 29.17) rotate(90)" fill="#ccc"/><circle cx="5.148" cy="5.148" r="5.148" transform="translate(156.145 58.34) rotate(90)" fill="#ccc"/><circle cx="5.148" cy="5.148" r="5.148" transform="translate(156.145 83.003) rotate(90)" fill="#ccc"/><circle cx="5.148" cy="5.148" r="5.148" transform="translate(156.145 110.67) rotate(90)" fill="#ccc"/><circle cx="5.148" cy="5.148" r="5.148" transform="translate(156.145 138.338) rotate(90)" fill="#ccc"/><circle cx="5.148" cy="5.148" r="5.148" transform="translate(156.145 166.005) rotate(90)" fill="#ccc"/><circle cx="5.148" cy="5.148" r="5.148" transform="translate(156.145 193.673) rotate(90)" fill="#ccc"/><circle cx="5.148" cy="5.148" r="5.148" transform="translate(156.145 221.341) rotate(90)" fill="#ccc"/><circle cx="5.148" cy="5.148" r="5.148" transform="translate(156.145 249.008) rotate(90)" fill="#ccc"/><circle cx="5.148" cy="5.148" r="5.148" transform="translate(156.145 273.671) rotate(90)" fill="#ccc"/><circle cx="5.148" cy="5.148" r="5.148" transform="translate(156.145 302.841) rotate(90)" fill="#ccc"/><circle cx="5.148" cy="5.148" r="5.148" transform="translate(156.145 332.011) rotate(90)" fill="#ccc"/><circle cx="5.148" cy="5.148" r="5.148" transform="translate(39.465) rotate(90)" fill="#ccc"/><circle cx="5.148" cy="5.148" r="5.148" transform="translate(39.465 29.17) rotate(90)" fill="#ccc"/><circle cx="5.148" cy="5.148" r="5.148" transform="translate(39.465 58.34) rotate(90)" fill="#ccc"/><circle cx="5.148" cy="5.148" r="5.148" transform="translate(39.465 83.003) rotate(90)" fill="#ccc"/><circle cx="5.148" cy="5.148" r="5.148" transform="translate(39.465 110.67) rotate(90)" fill="#ccc"/><circle cx="5.148" cy="5.148" r="5.148" transform="translate(39.465 138.338) rotate(90)" fill="#ccc"/><circle cx="5.148" cy="5.148" r="5.148" transform="translate(39.465 166.005) rotate(90)" fill="#ccc"/><circle cx="5.148" cy="5.148" r="5.148" transform="translate(126.975) rotate(90)" fill="#ccc"/><circle cx="5.148" cy="5.148" r="5.148" transform="translate(126.975 29.17) rotate(90)" fill="#ccc"/><circle cx="5.148" cy="5.148" r="5.148" transform="translate(126.975 58.34) rotate(90)" fill="#ccc"/><circle cx="5.148" cy="5.148" r="5.148" transform="translate(126.975 83.003) rotate(90)" fill="#ccc"/><circle cx="5.148" cy="5.148" r="5.148" transform="translate(126.975 110.67) rotate(90)" fill="#ccc"/><circle cx="5.148" cy="5.148" r="5.148" transform="translate(126.975 138.338) rotate(90)" fill="#ccc"/><circle cx="5.148" cy="5.148" r="5.148" transform="translate(126.975 166.005) rotate(90)" fill="#ccc"/><circle cx="5.148" cy="5.148" r="5.148" transform="translate(126.975 193.673) rotate(90)" fill="#ccc"/><circle cx="5.148" cy="5.148" r="5.148" transform="translate(126.975 221.341) rotate(90)" fill="#ccc"/><circle cx="5.148" cy="5.148" r="5.148" transform="translate(126.975 249.008) rotate(90)" fill="#ccc"/><circle cx="5.148" cy="5.148" r="5.148" transform="translate(126.975 273.671) rotate(90)" fill="#ccc"/><circle cx="5.148" cy="5.148" r="5.148" transform="translate(126.975 302.841) rotate(90)" fill="#ccc"/><circle cx="5.148" cy="5.148" r="5.148" transform="translate(126.975 332.011) rotate(90)" fill="#ccc"/><circle cx="5.148" cy="5.148" r="5.148" transform="translate(10.295) rotate(90)" fill="#ccc"/><circle cx="5.148" cy="5.148" r="5.148" transform="translate(10.295 29.17) rotate(90)" fill="#ccc"/><circle cx="5.148" cy="5.148" r="5.148" transform="translate(10.295 58.34) rotate(90)" fill="#ccc"/><circle cx="5.148" cy="5.148" r="5.148" transform="translate(10.295 83.003) rotate(90)" fill="#ccc"/><circle cx="5.148" cy="5.148" r="5.148" transform="translate(10.295 110.67) rotate(90)" fill="#ccc"/><circle cx="5.148" cy="5.148" r="5.148" transform="translate(10.295 138.338) rotate(90)" fill="#ccc"/><circle cx="5.148" cy="5.148" r="5.148" transform="translate(10.295 166.005) rotate(90)" fill="#ccc"/><circle cx="5.148" cy="5.148" r="5.148" transform="translate(97.805) rotate(90)" fill="#ccc"/><circle cx="5.148" cy="5.148" r="5.148" transform="translate(97.805 29.17) rotate(90)" fill="#ccc"/><circle cx="5.148" cy="5.148" r="5.148" transform="translate(97.805 58.34) rotate(90)" fill="#ccc"/><circle cx="5.148" cy="5.148" r="5.148" transform="translate(97.805 83.003) rotate(90)" fill="#ccc"/><circle cx="5.148" cy="5.148" r="5.148" transform="translate(97.805 110.67) rotate(90)" fill="#ccc"/><circle cx="5.148" cy="5.148" r="5.148" transform="translate(97.805 138.338) rotate(90)" fill="#ccc"/><circle cx="5.148" cy="5.148" r="5.148" transform="translate(97.805 166.005) rotate(90)" fill="#ccc"/><circle cx="5.148" cy="5.148" r="5.148" transform="translate(97.805 193.673) rotate(90)" fill="#ccc"/><circle cx="5.148" cy="5.148" r="5.148" transform="translate(97.805 221.341) rotate(90)" fill="#ccc"/><circle cx="5.148" cy="5.148" r="5.148" transform="translate(97.805 249.008) rotate(90)" fill="#ccc"/><circle cx="5.148" cy="5.148" r="5.148" transform="translate(97.805 273.671) rotate(90)" fill="#ccc"/><circle cx="5.148" cy="5.148" r="5.148" transform="translate(97.805 302.841) rotate(90)" fill="#ccc"/><circle cx="5.148" cy="5.148" r="5.148" transform="translate(97.805 332.011) rotate(90)" fill="#ccc"/><circle cx="5.148" cy="5.148" r="5.148" transform="translate(39.465 193.673) rotate(90)" fill="#ccc"/><circle cx="5.148" cy="5.148" r="5.148" transform="translate(39.465 221.341) rotate(90)" fill="#ccc"/><circle cx="5.148" cy="5.148" r="5.148" transform="translate(39.465 249.008) rotate(90)" fill="#ccc"/><circle cx="5.148" cy="5.148" r="5.148" transform="translate(39.465 273.671) rotate(90)" fill="#ccc"/><circle cx="5.148" cy="5.148" r="5.148" transform="translate(39.465 302.841) rotate(90)" fill="#ccc"/><circle cx="5.148" cy="5.148" r="5.148" transform="translate(39.465 332.011) rotate(90)" fill="#ccc"/><circle cx="5.148" cy="5.148" r="5.148" transform="translate(68.635) rotate(90)" fill="#ccc"/><circle cx="5.148" cy="5.148" r="5.148" transform="translate(68.635 29.17) rotate(90)" fill="#ccc"/><circle cx="5.148" cy="5.148" r="5.148" transform="translate(68.635 58.34) rotate(90)" fill="#ccc"/><circle cx="5.148" cy="5.148" r="5.148" transform="translate(68.635 83.003) rotate(90)" fill="#ccc"/><circle cx="5.148" cy="5.148" r="5.148" transform="translate(68.635 110.67) rotate(90)" fill="#ccc"/><circle cx="5.148" cy="5.148" r="5.148" transform="translate(68.635 138.338) rotate(90)" fill="#ccc"/><circle cx="5.148" cy="5.148" r="5.148" transform="translate(68.635 166.005) rotate(90)" fill="#ccc"/><circle cx="5.148" cy="5.148" r="5.148" transform="translate(68.635 193.673) rotate(90)" fill="#ccc"/><circle cx="5.148" cy="5.148" r="5.148" transform="translate(68.635 221.341) rotate(90)" fill="#ccc"/><circle cx="5.148" cy="5.148" r="5.148" transform="translate(68.635 249.008) rotate(90)" fill="#ccc"/><circle cx="5.148" cy="5.148" r="5.148" transform="translate(68.635 273.671) rotate(90)" fill="#ccc"/><circle cx="5.148" cy="5.148" r="5.148" transform="translate(68.635 302.841) rotate(90)" fill="#ccc"/><circle cx="5.148" cy="5.148" r="5.148" transform="translate(68.635 332.011) rotate(90)" fill="#ccc"/><circle cx="5.148" cy="5.148" r="5.148" transform="translate(10.295 193.673) rotate(90)" fill="#ccc"/><circle cx="5.148" cy="5.148" r="5.148" transform="translate(10.295 221.341) rotate(90)" fill="#ccc"/><circle cx="5.148" cy="5.148" r="5.148" transform="translate(10.295 249.008) rotate(90)" fill="#ccc"/><circle cx="5.148" cy="5.148" r="5.148" transform="translate(10.295 273.671) rotate(90)" fill="#ccc"/><circle cx="5.148" cy="5.148" r="5.148" transform="translate(10.295 302.841) rotate(90)" fill="#ccc"/><circle cx="5.148" cy="5.148" r="5.148" transform="translate(10.295 332.011) rotate(90)" fill="#ccc"/></g></g><g transform="translate(176.867 -1761.459)"><g transform="translate(0.133 2124.459)" opacity="0.14"><circle cx="5.148" cy="5.148" r="5.148" transform="translate(156.145) rotate(90)" fill="#ccc"/><circle cx="5.148" cy="5.148" r="5.148" transform="translate(156.145 29.17) rotate(90)" fill="#ccc"/><circle cx="5.148" cy="5.148" r="5.148" transform="translate(156.145 58.34) rotate(90)" fill="#ccc"/><circle cx="5.148" cy="5.148" r="5.148" transform="translate(156.145 83.003) rotate(90)" fill="#ccc"/><circle cx="5.148" cy="5.148" r="5.148" transform="translate(156.145 110.67) rotate(90)" fill="#ccc"/><circle cx="5.148" cy="5.148" r="5.148" transform="translate(156.145 138.338) rotate(90)" fill="#ccc"/><circle cx="5.148" cy="5.148" r="5.148" transform="translate(156.145 166.005) rotate(90)" fill="#ccc"/><circle cx="5.148" cy="5.148" r="5.148" transform="translate(156.145 193.673) rotate(90)" fill="#ccc"/><circle cx="5.148" cy="5.148" r="5.148" transform="translate(156.145 221.341) rotate(90)" fill="#ccc"/><circle cx="5.148" cy="5.148" r="5.148" transform="translate(156.145 249.008) rotate(90)" fill="#ccc"/><circle cx="5.148" cy="5.148" r="5.148" transform="translate(156.145 273.671) rotate(90)" fill="#ccc"/><circle cx="5.148" cy="5.148" r="5.148" transform="translate(156.145 302.841) rotate(90)" fill="#ccc"/><circle cx="5.148" cy="5.148" r="5.148" transform="translate(156.145 332.011) rotate(90)" fill="#ccc"/><circle cx="5.148" cy="5.148" r="5.148" transform="translate(39.465) rotate(90)" fill="#ccc"/><circle cx="5.148" cy="5.148" r="5.148" transform="translate(39.465 29.17) rotate(90)" fill="#ccc"/><circle cx="5.148" cy="5.148" r="5.148" transform="translate(39.465 58.34) rotate(90)" fill="#ccc"/><circle cx="5.148" cy="5.148" r="5.148" transform="translate(39.465 83.003) rotate(90)" fill="#ccc"/><circle cx="5.148" cy="5.148" r="5.148" transform="translate(39.465 110.67) rotate(90)" fill="#ccc"/><circle cx="5.148" cy="5.148" r="5.148" transform="translate(39.465 138.338) rotate(90)" fill="#ccc"/><circle cx="5.148" cy="5.148" r="5.148" transform="translate(39.465 166.005) rotate(90)" fill="#ccc"/><circle cx="5.148" cy="5.148" r="5.148" transform="translate(126.975) rotate(90)" fill="#ccc"/><circle cx="5.148" cy="5.148" r="5.148" transform="translate(126.975 29.17) rotate(90)" fill="#ccc"/><circle cx="5.148" cy="5.148" r="5.148" transform="translate(126.975 58.34) rotate(90)" fill="#ccc"/><circle cx="5.148" cy="5.148" r="5.148" transform="translate(126.975 83.003) rotate(90)" fill="#ccc"/><circle cx="5.148" cy="5.148" r="5.148" transform="translate(126.975 110.67) rotate(90)" fill="#ccc"/><circle cx="5.148" cy="5.148" r="5.148" transform="translate(126.975 138.338) rotate(90)" fill="#ccc"/><circle cx="5.148" cy="5.148" r="5.148" transform="translate(126.975 166.005) rotate(90)" fill="#ccc"/><circle cx="5.148" cy="5.148" r="5.148" transform="translate(126.975 193.673) rotate(90)" fill="#ccc"/><circle cx="5.148" cy="5.148" r="5.148" transform="translate(126.975 221.341) rotate(90)" fill="#ccc"/><circle cx="5.148" cy="5.148" r="5.148" transform="translate(126.975 249.008) rotate(90)" fill="#ccc"/><circle cx="5.148" cy="5.148" r="5.148" transform="translate(126.975 273.671) rotate(90)" fill="#ccc"/><circle cx="5.148" cy="5.148" r="5.148" transform="translate(126.975 302.841) rotate(90)" fill="#ccc"/><circle cx="5.148" cy="5.148" r="5.148" transform="translate(126.975 332.011) rotate(90)" fill="#ccc"/><circle cx="5.148" cy="5.148" r="5.148" transform="translate(10.295) rotate(90)" fill="#ccc"/><circle cx="5.148" cy="5.148" r="5.148" transform="translate(10.295 29.17) rotate(90)" fill="#ccc"/><circle cx="5.148" cy="5.148" r="5.148" transform="translate(10.295 58.34) rotate(90)" fill="#ccc"/><circle cx="5.148" cy="5.148" r="5.148" transform="translate(10.295 83.003) rotate(90)" fill="#ccc"/><circle cx="5.148" cy="5.148" r="5.148" transform="translate(10.295 110.67) rotate(90)" fill="#ccc"/><circle cx="5.148" cy="5.148" r="5.148" transform="translate(10.295 138.338) rotate(90)" fill="#ccc"/><circle cx="5.148" cy="5.148" r="5.148" transform="translate(10.295 166.005) rotate(90)" fill="#ccc"/><circle cx="5.148" cy="5.148" r="5.148" transform="translate(97.805) rotate(90)" fill="#ccc"/><circle cx="5.148" cy="5.148" r="5.148" transform="translate(97.805 29.17) rotate(90)" fill="#ccc"/><circle cx="5.148" cy="5.148" r="5.148" transform="translate(97.805 58.34) rotate(90)" fill="#ccc"/><circle cx="5.148" cy="5.148" r="5.148" transform="translate(97.805 83.003) rotate(90)" fill="#ccc"/><circle cx="5.148" cy="5.148" r="5.148" transform="translate(97.805 110.67) rotate(90)" fill="#ccc"/><circle cx="5.148" cy="5.148" r="5.148" transform="translate(97.805 138.338) rotate(90)" fill="#ccc"/><circle cx="5.148" cy="5.148" r="5.148" transform="translate(97.805 166.005) rotate(90)" fill="#ccc"/><circle cx="5.148" cy="5.148" r="5.148" transform="translate(97.805 193.673) rotate(90)" fill="#ccc"/><circle cx="5.148" cy="5.148" r="5.148" transform="translate(97.805 221.341) rotate(90)" fill="#ccc"/><circle cx="5.148" cy="5.148" r="5.148" transform="translate(97.805 249.008) rotate(90)" fill="#ccc"/><circle cx="5.148" cy="5.148" r="5.148" transform="translate(97.805 273.671) rotate(90)" fill="#ccc"/><circle cx="5.148" cy="5.148" r="5.148" transform="translate(97.805 302.841) rotate(90)" fill="#ccc"/><circle cx="5.148" cy="5.148" r="5.148" transform="translate(97.805 332.011) rotate(90)" fill="#ccc"/><circle cx="5.148" cy="5.148" r="5.148" transform="translate(39.465 193.673) rotate(90)" fill="#ccc"/><circle cx="5.148" cy="5.148" r="5.148" transform="translate(39.465 221.341) rotate(90)" fill="#ccc"/><circle cx="5.148" cy="5.148" r="5.148" transform="translate(39.465 249.008) rotate(90)" fill="#ccc"/><circle cx="5.148" cy="5.148" r="5.148" transform="translate(39.465 273.671) rotate(90)" fill="#ccc"/><circle cx="5.148" cy="5.148" r="5.148" transform="translate(39.465 302.841) rotate(90)" fill="#ccc"/><circle cx="5.148" cy="5.148" r="5.148" transform="translate(39.465 332.011) rotate(90)" fill="#ccc"/><circle cx="5.148" cy="5.148" r="5.148" transform="translate(68.635) rotate(90)" fill="#ccc"/><circle cx="5.148" cy="5.148" r="5.148" transform="translate(68.635 29.17) rotate(90)" fill="#ccc"/><circle cx="5.148" cy="5.148" r="5.148" transform="translate(68.635 58.34) rotate(90)" fill="#ccc"/><circle cx="5.148" cy="5.148" r="5.148" transform="translate(68.635 83.003) rotate(90)" fill="#ccc"/><circle cx="5.148" cy="5.148" r="5.148" transform="translate(68.635 110.67) rotate(90)" fill="#ccc"/><circle cx="5.148" cy="5.148" r="5.148" transform="translate(68.635 138.338) rotate(90)" fill="#ccc"/><circle cx="5.148" cy="5.148" r="5.148" transform="translate(68.635 166.005) rotate(90)" fill="#ccc"/><circle cx="5.148" cy="5.148" r="5.148" transform="translate(68.635 193.673) rotate(90)" fill="#ccc"/><circle cx="5.148" cy="5.148" r="5.148" transform="translate(68.635 221.341) rotate(90)" fill="#ccc"/><circle cx="5.148" cy="5.148" r="5.148" transform="translate(68.635 249.008) rotate(90)" fill="#ccc"/><circle cx="5.148" cy="5.148" r="5.148" transform="translate(68.635 273.671) rotate(90)" fill="#ccc"/><circle cx="5.148" cy="5.148" r="5.148" transform="translate(68.635 302.841) rotate(90)" fill="#ccc"/><circle cx="5.148" cy="5.148" r="5.148" transform="translate(68.635 332.011) rotate(90)" fill="#ccc"/><circle cx="5.148" cy="5.148" r="5.148" transform="translate(10.295 193.673) rotate(90)" fill="#ccc"/><circle cx="5.148" cy="5.148" r="5.148" transform="translate(10.295 221.341) rotate(90)" fill="#ccc"/><circle cx="5.148" cy="5.148" r="5.148" transform="translate(10.295 249.008) rotate(90)" fill="#ccc"/><circle cx="5.148" cy="5.148" r="5.148" transform="translate(10.295 273.671) rotate(90)" fill="#ccc"/><circle cx="5.148" cy="5.148" r="5.148" transform="translate(10.295 302.841) rotate(90)" fill="#ccc"/><circle cx="5.148" cy="5.148" r="5.148" transform="translate(10.295 332.011) rotate(90)" fill="#ccc"/></g></g></g></svg>